<svg width="1237" height="679" xmlns="http://www.w3.org/2000/svg" xmlns:xlink="http://www.w3.org/1999/xlink" overflow="hidden"><defs><clipPath id="clip0"><path d="M32 16 1269 16 1269 695 32 695Z" fill-rule="evenodd" clip-rule="evenodd"/></clipPath></defs><g clip-path="url(#clip0)" transform="translate(-32 -16)"><rect x="34.5001" y="313.5" width="334" height="68" stroke="#000000" stroke-width="3" stroke-miterlimit="8" fill="#FFFFFF"/><text font-family="Calibri,Calibri_MSFontService,sans-serif" font-weight="400" font-size="24" transform="translate(55.807 340)">Initialize ‘Angle’ and ‘Position’<tspan x="83.28" y="29">by</tspan><tspan x="112.16" y="29">GPS</tspan><tspan x="156.16" y="29">Track</tspan></text><rect x="458.5" y="455.5" width="334" height="48" stroke="#000000" stroke-width="3" stroke-miterlimit="8" fill="#FFFFFF"/><text font-family="Calibri,Calibri_MSFontService,sans-serif" font-weight="400" font-size="24" transform="translate(539.7 486)">Calibrate Position</text><rect x="896.5" y="520.5" width="262" height="48" stroke="#000000" stroke-width="3" stroke-miterlimit="8" fill="#FFFFFF"/><text font-family="Calibri,Calibri_MSFontService,sans-serif" font-weight="400" font-size="24" transform="translate(959.494 552)">ICP Transform</text><path d="M975.276 18.5001 1079.72 18.5001C1093.41 18.5001 1104.5 29.9168 1104.5 44.0001 1104.5 58.0833 1093.41 69.5 1079.72 69.5L975.276 69.5C961.592 69.5 950.5 58.0833 950.5 44.0001 950.5 29.9168 961.592 18.5001 975.276 18.5001Z" stroke="#000000" stroke-width="3" stroke-miterlimit="8" fill="#FFFFFF" fill-rule="evenodd"/><text font-family="Calibri,Calibri_MSFontService,sans-serif" font-weight="400" font-size="24" transform="translate(1003.7 51)">Start</text><path d="M810.5 272.5 897.3 204.5 1244.5 204.5 1157.7 272.5Z" stroke="#000000" stroke-width="3" stroke-miterlimit="8" fill="#FFFFFF" fill-rule="evenodd"/><text font-family="Calibri,Calibri_MSFontService,sans-serif" font-weight="400" font-size="24" transform="translate(911.867 231)">Car Input Data by Time:<tspan x="-33.0334" y="29">GPS, LiDAR Sensor Point Cloud</tspan></text><rect x="814.5" y="103.5" width="425" height="68" stroke="#000000" stroke-width="3" stroke-miterlimit="8" fill="#FFFFFF"/><text font-family="Calibri,Calibri_MSFontService,sans-serif" font-weight="400" font-size="24" transform="translate(837.421 130)">Setup <tspan font-style="italic" x="61.7067" y="0">‘Subscribing and Publishing Port’ </tspan><tspan x="81.9067" y="29">and </tspan><tspan font-style="italic" x="124.24" y="29">‘Map Point Cloud’</tspan></text><path d="M898.5 347 1027 297.5 1155.5 347 1027 396.5Z" stroke="#000000" stroke-width="3" stroke-miterlimit="8" fill="#FFFFFF" fill-rule="evenodd"/><text font-family="Calibri,Calibri_MSFontService,sans-serif" font-weight="400" font-size="24" transform="translate(967.284 354)">Initialization</text><path d="M496.5 347 625.5 297.5 754.5 347 625.5 396.5Z" stroke="#000000" stroke-width="3" stroke-miterlimit="8" fill="#FFFFFF" fill-rule="evenodd"/><text font-family="Calibri,Calibri_MSFontService,sans-serif" font-weight="400" font-size="24" transform="translate(573.223 354)">GPS buffer</text><path d="M496.504 348 374.667 348 374.667 346 496.504 346ZM376 351 368 347 376 343Z"/><rect x="380.5" y="302.5" width="104" height="39" stroke="#000000" stroke-linejoin="round" stroke-miterlimit="10" stroke-dasharray="3 1" fill="#FFFFFF"/><text font-family="Calibri,Calibri_MSFontService,sans-serif" font-weight="400" font-size="24" transform="translate(389.574 329)">4&lt;size&lt;8</text><path d="M626 396 626 447.872 624 447.872 624 396ZM629 446.538 625 454.538 621 446.538Z"/><rect x="633.5" y="401.5" width="92" height="38" stroke="#000000" stroke-linejoin="round" stroke-miterlimit="10" stroke-dasharray="3 1" fill="#FFFFFF"/><text font-family="Calibri,Calibri_MSFontService,sans-serif" font-weight="400" font-size="24" transform="translate(642.259 427)">size==8</text><path d="M814.5 669.5 899.5 601.5 1239.5 601.5 1154.5 669.5Z" stroke="#000000" stroke-width="3" stroke-miterlimit="8" fill="#FFFFFF" fill-rule="evenodd"/><text font-family="Calibri,Calibri_MSFontService,sans-serif" font-weight="400" font-size="24" transform="translate(923.871 629)">Updated Car Position<tspan x="16.4866" y="29">Regarding to Map</tspan></text><path d="M7.2446e-07-1 138.251-0.9999 138.251 1.0001-7.2446e-07 1ZM136.917-3.9999 144.917 0.000104987 136.917 4.0001Z" transform="matrix(-1 -8.74228e-08 -8.74228e-08 1 898.917 347)"/><path d="M1028 396 1028 512.928 1026 512.928 1026 396ZM1031 511.595 1027 519.595 1023 511.595Z"/><path d="M1028 568 1028 594.69 1026 594.69 1026 568ZM1031 593.356 1027 601.356 1023 593.356Z"/><path d="M1-3.14745e-06 1.00008 26.6896-0.999916 26.6896-1 3.14745e-06ZM4.00008 25.3562 0.000104987 33.3562-3.99992 25.3562Z" transform="matrix(-1 -8.74228e-08 -8.74228e-08 1 1027 69)"/><path d="M1028 171 1028 197.69 1026 197.69 1026 171ZM1031 196.356 1027 204.356 1023 196.356Z"/><path d="M1028 272 1028 290.186 1026 290.186 1026 272ZM1031 288.852 1027 296.852 1023 288.852Z"/><path d="M200 312.472 200 238C200 237.448 200.448 237 201 237L847.215 237 847.215 239 201 239 202 238 202 312.472ZM845.881 234 853.881 238 845.881 242Z"/><path d="M0-1 40.8671-1C41.4194-1 41.8671-0.552285 41.8671 0L41.8671 264.754 39.8671 264.754 39.8671 0 40.8671 1 0 1ZM44.8671 263.42 40.8671 271.42 36.8671 263.42Z" transform="matrix(-4.37114e-08 1 1 4.37114e-08 625 503)"/><path d="M1028 669.469 1028 693.467 1027 692.467 1267.63 692.467 1266.63 693.467 1266.63 238 1267.63 239 1206.97 239 1206.97 237 1267.63 237C1268.18 237 1268.63 237.448 1268.63 238L1268.63 693.467C1268.63 694.019 1268.18 694.467 1267.63 694.467L1027 694.467C1026.45 694.467 1026 694.019 1026 693.467L1026 669.469ZM1208.3 242 1200.3 238 1208.3 234Z"/><rect x="842.5" y="302.5" width="63" height="39" stroke="#000000" stroke-linejoin="round" stroke-miterlimit="10" stroke-dasharray="3 1" fill="#FFFFFF"/><text font-family="Calibri,Calibri_MSFontService,sans-serif" font-weight="400" font-size="24" transform="translate(851.383 329)">True</text><rect x="1036.5" y="406.5" width="68" height="39" stroke="#000000" stroke-linejoin="round" stroke-miterlimit="10" stroke-dasharray="3 1" fill="#FFFFFF"/><text font-family="Calibri,Calibri_MSFontService,sans-serif" font-weight="400" font-size="24" transform="translate(1045.29 433)">False</text></g></svg>